<?xml version="1.0" encoding="UTF-8"?>
<svg width="111px" height="52px" viewBox="0 0 111 52" version="1.1" xmlns="http://www.w3.org/2000/svg" xmlns:xlink="http://www.w3.org/1999/xlink">
    <!-- Generator: sketchtool 41 (35326) - http://www.bohemiancoding.com/sketch -->
    <title>99D20981-2967-4CC4-B6AF-FEE0742ABDB2</title>
    <desc>Created with sketchtool.</desc>
    <defs></defs>
    <g id="Page-1" stroke="none" stroke-width="1" fill="none" fill-rule="evenodd">
        <g id="novo-login-Oi-Play-Copy" transform="translate(-31.000000, -20.000000)" fill="#FFFFFF">
            <g id="oi-play" transform="translate(31.000000, 20.000000)">
                <g id="logo">
                    <g id="Page-1">
                        <path d="M73.9555556,20.2992593 C75.6888889,20.2992593 76.4014815,21.397037 76.4014815,22.6874074 C76.4014815,23.9777778 75.6888889,25.0755556 73.9555556,25.0755556 L70.8933333,25.0755556 L70.8933333,20.2992593 L73.9555556,20.2992593 Z M70.8933333,27.117037 L73.9555556,27.117037 C77.0755556,27.117037 78.5007407,25.0948148 78.5007407,22.7066667 C78.5007407,20.3185185 77.0755556,18.2962963 73.9555556,18.2962963 L68.8325926,18.2962963 L68.8325926,31.7777778 L70.8933333,31.7777778 L70.8933333,27.117037 Z M80.3688889,31.7777778 L88.322963,31.7777778 L88.322963,29.7362963 L82.4296296,29.7362963 L82.4296296,18.2962963 L80.3688889,18.2962963 L80.3688889,31.7777778 Z M98.0874074,31.7777778 L100.205926,31.7777778 L95.4874074,18.2962963 L93.3688889,18.2962963 L88.6503704,31.7777778 L90.7688889,31.7777778 L91.9051852,28.522963 L96.9511111,28.522963 L98.0874074,31.7777778 Z M92.56,26.6162963 L94.4281481,21.2622222 L96.2962963,26.6162963 L92.56,26.6162963 Z M105.887407,26.6355556 L105.887407,31.7777778 L103.826667,31.7777778 L103.826667,26.6355556 L99.0888889,18.2962963 L101.361481,18.2962963 L104.866667,24.4977778 L108.371852,18.2962963 L110.644444,18.2962963 L105.887407,26.6355556 Z M47.0763836,13.5056152 C40.6680853,9.26028104 35.7755386,0 22.5950947,0 C7.78588844,0 -1.38401368e-14,13.5347901 -1.38401368e-14,25.0539434 C-1.38401368e-14,41.8700674 14.2361046,51.9993347 31.6293544,51.9993347 C47.5242904,51.9993347 59.7035111,40.4877824 59.7035111,31.1766409 C59.7035111,22.4412839 54.2048873,18.2279192 47.0763836,13.5056152 Z M35.2312765,36.6753765 C33.8826376,36.6753765 32.7841649,33.4681533 32.7841649,29.5093142 C32.7841649,25.5508103 33.8826376,22.3414634 35.2312765,22.3414634 C36.5808097,22.3414634 37.6745876,25.5508103 37.6745876,29.5093142 C37.6745876,33.4681533 36.5808097,36.6753765 35.2312765,36.6753765 Z M35.2005367,15.76214 C36.529055,15.76214 37.5999179,16.8375859 37.5999179,18.1601798 C37.5999179,19.4867979 36.529055,20.5632498 35.2005367,20.5632498 C33.8769368,20.5632498 32.8041736,19.4867979 32.8041736,18.1601798 C32.8041736,16.8375859 33.8769368,15.76214 35.2005367,15.76214 Z M24.3317258,36.6706817 C20.3126365,36.6706817 17.6400625,33.493863 17.6400625,29.5014895 C17.6400625,25.5141462 20.3126365,22.3336387 24.3317258,22.3336387 C28.3401958,22.3336387 31.0097517,25.5141462 31.0097517,29.5014895 C31.0097517,33.493863 28.3401958,36.6706817 24.3317258,36.6706817 Z M24.3316922,25.7210418 C22.4886456,25.7210418 21.4685314,27.5614056 21.4685314,29.4784514 C21.4685314,31.398627 22.4886456,33.2917516 24.3316922,33.2917516 C26.1683673,33.2917516 27.1863578,31.398627 27.1863578,29.4784514 C27.1863578,27.5614056 26.1683673,25.7210418 24.3316922,25.7210418 Z" id="logo"></path>
                    </g>
                </g>
            </g>
        </g>
    </g>
</svg>